<svg width="23" height="24" viewBox="0 0 23 24" fill="none" xmlns="http://www.w3.org/2000/svg">
<path d="M17.9784 19L18.9784 12L12.9784 13M4.97841 8L7.97841 5L13.4784 8L11.1184 11.5M4.21841 14.5C3.93625 15.4231 3.92729 16.4081 4.19262 17.3361C4.45796 18.2641 4.98623 19.0955 5.71369 19.73C6.44114 20.3644 7.33667 20.7746 8.29217 20.9113C9.24767 21.0479 10.2223 20.9051 11.0984 20.5M13.7384 17.5C14.0206 16.5769 14.0295 15.5919 13.7642 14.6639C13.4989 13.7359 12.9706 12.9045 12.2431 12.27C11.5157 11.6356 10.6202 11.2254 9.66465 11.0887C8.70915 10.9521 7.73452 11.0949 6.85841 11.5M16.9784 4C16.9784 4.55228 16.5307 5 15.9784 5C15.4261 5 14.9784 4.55228 14.9784 4C14.9784 3.44772 15.4261 3 15.9784 3C16.5307 3 16.9784 3.44772 16.9784 4Z" stroke="black" stroke-width="2" stroke-linecap="round" stroke-linejoin="round"/>
</svg>
