<svg width="14" height="14" viewBox="0 0 14 14" fill="none" xmlns="http://www.w3.org/2000/svg">
<path d="M9 1.5H10.875C11.37 1.5 11.7904 1.81531 11.9404 2.25781L13.5 6.75V12.75C13.5 13.1625 13.1625 13.5 12.75 13.5H12C11.5875 13.5 11.25 13.1625 11.25 12.75V12H2.25V12.75C2.25 13.1625 1.9125 13.5 1.5 13.5H0.75C0.3375 13.5 0 13.1625 0 12.75V6.75L1.55957 2.25781C1.71707 1.81531 2.13 1.5 2.625 1.5H4.5V0H9V1.5ZM1.5 7.00488V10.5H12V7.00488L11.918 6.75H1.58984L1.5 7.00488ZM3.375 7.5C3.99632 7.5 4.5 8.00368 4.5 8.625C4.5 9.24632 3.99632 9.75 3.375 9.75C2.75368 9.75 2.25 9.24632 2.25 8.625C2.25 8.00368 2.75368 7.5 3.375 7.5ZM10.125 7.5C10.7463 7.5 11.25 8.00368 11.25 8.625C11.25 9.24632 10.7463 9.75 10.125 9.75C9.50368 9.75 9 9.24632 9 8.625C9 8.00368 9.50368 7.5 10.125 7.5ZM2.10742 5.25H11.3848L10.6045 3H2.88672L2.10742 5.25Z" fill="#30628C"/>
</svg>
