<svg width="19" height="19" viewBox="0 0 19 19" fill="none" xmlns="http://www.w3.org/2000/svg">
<path d="M18.5 12.95V3.2375C18.5 1.44636 17.0536 0 15.2625 0H3.2375C1.44636 0 0 1.44636 0 3.2375V15.2625C0 17.0536 1.44636 18.5 3.2375 18.5H12.95L18.5 12.95ZM3.2375 16.65C2.47227 16.65 1.85 16.0277 1.85 15.2625V3.2375C1.85 2.47227 2.47227 1.85 3.2375 1.85H15.2625C16.0277 1.85 16.65 2.47227 16.65 3.2375V12.025H15.2625C13.4714 12.025 12.025 13.4714 12.025 15.2625V16.65H3.2375ZM7.18136 7.19818C6.9375 6.34045 6.04614 5.83591 5.18841 6.07977C4.33068 6.32364 3.82614 7.215 4.07 8.08114C4.13727 8.31659 4.255 8.52682 4.40636 8.70341L7.215 7.91295C7.25705 7.6775 7.24864 7.43364 7.18136 7.19818ZM12.9668 5.56682C12.7314 4.70909 11.8316 4.20455 10.9739 4.44841C10.1161 4.69227 9.61159 5.58364 9.85545 6.44977C9.92273 6.68523 10.0405 6.89545 10.1918 7.07205L13.0005 6.28159C13.0425 6.04614 13.0341 5.80227 12.9668 5.56682ZM13.7909 8.45955L4.87727 10.9739C6.07977 12.5632 8.16523 13.3368 10.1918 12.765C12.2184 12.1932 13.5891 10.4357 13.7909 8.45955Z" fill="#49454F"/>
</svg>
