<?xml version="1.0" encoding="UTF-8"?>
<svg id="Layer_2" data-name="Layer 2" xmlns="http://www.w3.org/2000/svg" viewBox="0 0 115.02 53.51">
  <defs>
    <style>
      .cls-1 {
        fill: #fac533;
      }

      .cls-2 {
        fill: #fff;
      }
    </style>
  </defs>
  <g id="Capa_1" data-name="Capa 1">
    <g>
      <g>
        <g>
          <path class="cls-2" d="M8.7,42.42h-2.69v-3.24h2.69c.91,0,1.66.73,1.66,1.62s-.74,1.62-1.66,1.62M6.02,32.87h2.12c.92,0,1.66.73,1.66,1.62s-.74,1.62-1.66,1.62h-2.12v-3.23ZM13.48,34.49c0-2.92-2.4-5.3-5.34-5.3H1.71v16.92h6.99c2.95,0,5.34-2.38,5.34-5.3,0-1.3-.49-2.56-1.37-3.54.53-.83.81-1.79.81-2.78"/>
          <path class="cls-2" d="M23.26,41.98c-2.18,0-3.95-1.9-3.95-4.26s1.77-4.25,3.95-4.25,3.95,1.91,3.95,4.25-1.77,4.26-3.95,4.26M23.26,28.88c-4.71,0-8.54,3.97-8.54,8.84s3.83,8.85,8.54,8.85,8.54-3.96,8.54-8.85-3.83-8.84-8.54-8.84"/>
          <path class="cls-2" d="M42.31,40.33h2v.93c-.74.47-1.63.72-2.52.72-2.49,0-4.52-1.9-4.52-4.25s2.03-4.25,4.52-4.25c1.18,0,2.3.43,3.15,1.2l.45.41,3.1-3.39-.44-.41c-1.7-1.56-3.92-2.41-6.26-2.41-5.03,0-9.12,3.97-9.12,8.84s4.09,8.85,9.12,8.85c.86,0,1.7-.11,2.52-.34v.03h4.6v-10.53h-6.6v4.59Z"/>
        </g>
        <polygon class="cls-2" points="72.5 34.16 72.5 46.26 77.95 46.26 77.95 34.16 83.09 34.16 83.09 28.96 67.33 28.96 67.33 34.16 72.5 34.16"/>
        <polygon class="cls-2" points="107.23 53.51 96.8 25.77 87.44 25.77 79.77 46.23 85.45 46.23 92.11 29.4 101.56 53.51 107.23 53.51"/>
        <path class="cls-2" d="M58.48,41.98c-2.18,0-3.94-1.9-3.94-4.26s1.77-4.25,3.94-4.25,3.95,1.91,3.95,4.25-1.77,4.26-3.95,4.26M66.01,33.55v-.02c-1.45-2.77-4.28-4.66-7.53-4.66-4.71,0-8.54,3.97-8.54,8.84s3.83,8.85,8.54,8.85,8.54-3.96,8.54-8.85c0-1.5-.37-2.92-1.01-4.17"/>
        <polygon class="cls-1" points="99.19 16.78 104.3 14.69 97.5 12.25 93.14 .59 88.62 9.18 79.39 7.28 85.9 14.33 82.73 22.87 94.18 18.75 102.55 25.77 99.19 16.78"/>
        <polygon class="cls-1" points="80.12 17.24 82.22 15.9 79.71 15.36 78.99 12.86 77.99 14.99 74.19 14.19 77.16 17.25 76.25 19.73 78.92 18.01 80.99 19.68 80.12 17.24"/>
        <polygon class="cls-1" points="102.76 4.57 104.94 3.17 102.32 2.61 101.57 0 100.3 2.18 96.56 1.38 99.66 4.58 98.72 7.17 101.5 5.38 103.66 7.12 102.76 4.57"/>
      </g>
      <g>
        <path class="cls-2" d="M2.1,16.9v-.42h1.46v.53c0,1.74-1.97,2.03-1.97,3.25,0,.56.5,1.01,1.16,1.01s1.27-.52,1.27-.52l.85,1.05s-.84.85-2.25.85-2.63-.83-2.63-2.25c0-1.97,2.1-2.21,2.1-3.5ZM2.1,14.02h1.46v1.42h-1.46v-1.42Z"/>
        <path class="cls-2" d="M6.2,11.62h3.29c1.6,0,2.71,1.12,2.71,2.77s-1.12,2.81-2.71,2.81h-1.74v2.94h-1.55v-8.51ZM9.2,15.85c.9,0,1.43-.58,1.43-1.46s-.53-1.44-1.4-1.44h-1.47v2.9h1.45Z"/>
        <path class="cls-2" d="M16.23,13.87c1.87,0,3.37,1.33,3.37,3.2s-1.5,3.2-3.36,3.2-3.37-1.32-3.37-3.2,1.5-3.2,3.36-3.2ZM16.25,18.98c.98,0,1.81-.77,1.81-1.91s-.83-1.91-1.81-1.91-1.82.78-1.82,1.91.83,1.91,1.82,1.91Z"/>
        <path class="cls-2" d="M20.83,14.02h1.46v1.06c0,.23-.02.43-.02.43h.02c.28-.88,1.01-1.57,1.94-1.57.14,0,.28.02.28.02v1.5s-.16-.02-.36-.02c-.65,0-1.38.37-1.67,1.28-.1.3-.13.64-.13,1v2.42h-1.52v-6.12Z"/>
        <path class="cls-2" d="M30.81,13.87c1.34,0,1.86.89,1.86.89h.02s-.02-.16-.02-.4v-.35h1.44v8.51h-1.52v-2.64c0-.31.02-.53.02-.53h-.02s-.52.91-1.83.91c-1.65,0-2.71-1.31-2.71-3.2s1.15-3.2,2.77-3.2ZM31.1,19c.79,0,1.54-.58,1.54-1.93,0-.95-.5-1.88-1.52-1.88-.84,0-1.54.68-1.54,1.9s.62,1.92,1.52,1.92Z"/>
        <path class="cls-2" d="M35.71,14.02h1.52v3.62c0,.74.19,1.25.95,1.25,1.1,0,1.71-.97,1.71-2.06v-2.81h1.52v6.12h-1.46v-.7c0-.24.02-.43.02-.43h-.02c-.3.64-1.08,1.27-2.12,1.27-1.31,0-2.12-.66-2.12-2.33v-3.93Z"/>
        <path class="cls-2" d="M45.78,13.87c1.76,0,2.71,1.28,2.71,2.9,0,.18-.04.59-.04.59h-4.22c.1,1.07.92,1.62,1.83,1.62.98,0,1.76-.67,1.76-.67l.59,1.09s-.94.88-2.46.88c-2.03,0-3.29-1.46-3.29-3.2,0-1.88,1.28-3.2,3.11-3.2ZM46.95,16.32c-.02-.83-.54-1.27-1.21-1.27-.78,0-1.32.48-1.46,1.27h2.67ZM45.99,11.63h1.57l-1.26,1.63h-1.22l.91-1.63Z"/>
      </g>
      <path class="cls-2" d="M111.46,43.07c0-1.74,1.98-2.02,1.98-3.25,0-.56-.5-1-1.16-1s-1.28.5-1.28.5l-.84-1.04s.83-.86,2.25-.86,2.61.84,2.61,2.25c0,1.98-2.09,2.21-2.09,3.5v.47h-1.48v-.58ZM111.46,44.69h1.48v1.42h-1.48v-1.42Z"/>
    </g>
  </g>
</svg>